# xmcd
#
# Track frame offsets: 
#        150
#        17887
#        37725
#        58312
#        78637
#        100287
#        116950
#        133012
#        151837
#        169387
#        190687
#        213075
#        231937
#        251250
#        270375
#
# Disc length: 3794 seconds
#
# Revision: 25
# Processed by: cddbd v1.5.2PL0 Copyright (c) Steve Scherf et al.
# Submitted via: ExactAudioCopy v1.0b2
#
DISCID=c90ed00f
DTITLE=サザンオールスターズ - 海のYeah!! ～Sea Side～
DYEAR=1998
DGENRE=JPop
TTITLE0=勝手にシンドバッド
TTITLE1=いとしのエリー
TTITLE2=C調言葉に御用心
TTITLE3=栞のテーマ
TTITLE4=いなせなロコモーション
TTITLE5=夏をあきらめて
TTITLE6=チャコの海岸物語
TTITLE7=匂艶 THE NIGHT CLUB
TTITLE8=鎌倉物語
TTITLE9=Bye Bye My Love (U are the one)
TTITLE10=ミス・ブランニュー・デイ (MISS BRAND-NEW DAY)
TTITLE11=海
TTITLE12=みんなのうた
TTITLE13=希望の轍
TTITLE14=忘れられた Big Wave
EXTD=YEAR: 1998
EXTT0=
EXTT1=
EXTT2=
EXTT3=
EXTT4=
EXTT5=
EXTT6=
EXTT7=
EXTT8=
EXTT9=
EXTT10=
EXTT11=
EXTT12=
EXTT13=
EXTT14=
PLAYORDER=
